<?xml version="1.0" standalone="no"?>
<!DOCTYPE svg PUBLIC "-//W3C//DTD SVG 20010904//EN"
 "http://www.w3.org/TR/2001/REC-SVG-20010904/DTD/svg10.dtd">
<svg version="1.0" xmlns="http://www.w3.org/2000/svg"
 width="372.000000pt" height="277.000000pt" viewBox="0 0 372.000000 277.000000"
 preserveAspectRatio="xMidYMid meet">
<metadata>
Created by potrace 1.16, written by Peter Selinger 2001-2019
</metadata>
<g transform="translate(0.000000,277.000000) scale(0.100000,-0.100000)"
fill="#000000" stroke="none">
<path d="M2451 2542 c-26 -52 -73 -191 -116 -344 -9 -32 -20 -60 -25 -63 -4
-3 -57 4 -117 16 -99 19 -131 20 -373 15 -146 -3 -296 -9 -333 -12 -101 -9
-109 -5 -152 78 -21 40 -64 111 -95 158 -31 47 -69 109 -85 138 -15 28 -31 52
-35 52 -16 0 -62 -125 -80 -217 -22 -116 -23 -118 -89 -294 -27 -76 -71 -220
-96 -320 -72 -285 -113 -424 -167 -554 -27 -66 -91 -223 -143 -350 -51 -126
-112 -270 -135 -320 -85 -182 -159 -354 -189 -439 l-31 -87 46 3 47 3 47 115
c25 63 86 201 135 305 48 105 110 246 137 315 28 69 52 128 54 132 3 4 62 -34
132 -84 164 -116 239 -160 360 -208 125 -49 263 -84 419 -106 l122 -17 37 -56
c20 -31 59 -83 85 -117 l48 -61 -34 -104 c-28 -86 -38 -105 -57 -110 -13 -4
247 -6 577 -6 548 2 560 2 139 4 l-462 3 -7 38 c-3 20 -15 72 -25 115 l-20 78
64 59 c35 33 79 82 97 109 l34 49 105 22 c122 25 617 187 706 231 72 36 130
92 148 142 l12 36 53 -137 c70 -178 210 -508 274 -644 43 -92 53 -108 73 -108
13 0 24 3 24 6 0 3 -24 61 -54 128 -119 270 -283 691 -394 1016 -33 96 -76
212 -95 257 -20 45 -59 153 -88 240 -74 226 -147 409 -224 563 -36 74 -82 173
-100 219 -32 78 -95 171 -116 171 -5 0 -22 -26 -38 -58z m175 -353 c101 -203
153 -330 237 -574 30 -88 78 -212 105 -275 67 -155 107 -281 99 -311 -11 -43
-51 -93 -94 -117 -23 -12 -83 -32 -135 -43 -51 -11 -131 -34 -178 -50 -284
-101 -343 -120 -418 -130 -123 -17 -768 -6 -892 14 -127 21 -261 61 -333 99
-55 30 -152 123 -242 232 l-35 43 34 80 c50 117 89 244 160 522 35 135 86 307
114 381 27 74 55 153 62 175 l13 40 9 -30 c4 -16 9 -85 11 -152 2 -107 4 -120
17 -108 25 22 94 53 133 60 l37 7 -71 75 c-88 93 -129 157 -129 200 0 18 4 33
9 33 9 0 111 -153 111 -166 0 -4 14 -29 31 -56 52 -81 99 -94 262 -73 150 20
537 20 627 0 77 -17 164 -19 190 -5 29 15 37 36 86 212 24 88 47 165 51 172 4
6 13 -6 22 -29 8 -22 56 -124 107 -226z"/>
<path d="M2519 2253 c-5 -15 -15 -63 -20 -108 -7 -50 -16 -83 -25 -88 -29 -17
-12 -22 67 -20 88 2 101 7 78 26 -9 6 -21 45 -27 85 -13 75 -35 132 -53 132
-5 0 -14 -12 -20 -27z"/>
<path d="M2199 1573 c-28 -52 -7 -173 30 -173 37 1 46 17 45 89 0 54 -5 75
-19 91 -24 27 -39 25 -56 -7z"/>
<path d="M1454 1555 c-18 -44 -18 -86 1 -131 12 -30 19 -35 42 -32 22 2 29 9
35 38 14 72 -14 160 -53 160 -5 0 -17 -16 -25 -35z"/>
</g>
</svg>
